<svg width="96" height="96" viewBox="0 0 96 96" fill="none" xmlns="http://www.w3.org/2000/svg">
<g filter="url(#filter0_di_1321_1296)">
<rect x="8" y="7" width="37" height="37" rx="18.5" fill="#B0BDFF" shape-rendering="crispEdges"/>
<path fill-rule="evenodd" clip-rule="evenodd" d="M32.8977 19.1026C33.1174 19.3223 33.1174 19.6784 32.8977 19.8981L20.8977 31.8981C20.6781 32.1178 20.3219 32.1178 20.1023 31.8981C19.8826 31.6784 19.8826 31.3223 20.1023 31.1026L32.1023 19.1026C32.3219 18.8829 32.6781 18.8829 32.8977 19.1026Z" fill="black"/>
<path fill-rule="evenodd" clip-rule="evenodd" d="M26.6875 19.5004C26.6875 19.1897 26.9393 18.9379 27.25 18.9379H32.5C32.8107 18.9379 33.0625 19.1897 33.0625 19.5004V24.7504C33.0625 25.061 32.8107 25.3129 32.5 25.3129C32.1893 25.3129 31.9375 25.061 31.9375 24.7504V20.0629H27.25C26.9393 20.0629 26.6875 19.811 26.6875 19.5004Z" fill="black"/>
<path fill-rule="evenodd" clip-rule="evenodd" d="M21.9773 25.478C22.1969 25.2583 22.5531 25.2583 22.7727 25.478L26.5227 29.228C26.7424 29.4477 26.7424 29.8038 26.5227 30.0235C26.3031 30.2432 25.9469 30.2432 25.7273 30.0235L21.9773 26.2735C21.7576 26.0538 21.7576 25.6977 21.9773 25.478Z" fill="black"/>
</g>
<g filter="url(#filter1_di_1321_1296)">
<rect x="51" y="7" width="37" height="37" rx="18.5" fill="#B0BDFF" shape-rendering="crispEdges"/>
<path fill-rule="evenodd" clip-rule="evenodd" d="M63.687 31.4998C63.687 31.1891 63.9389 30.9373 64.2495 30.9373L74.7495 30.9373C75.0602 30.9373 75.312 31.1891 75.312 31.4998C75.312 31.8104 75.0602 32.0623 74.7495 32.0623L64.2495 32.0623C63.9389 32.0623 63.687 31.8104 63.687 31.4998Z" fill="black"/>
<path fill-rule="evenodd" clip-rule="evenodd" d="M69.5 19.3064C68.3741 19.3064 67.2857 19.7117 66.434 20.4481C65.5823 21.1846 65.0242 22.203 64.8616 23.3172C64.6991 24.4313 64.943 25.5668 65.5488 26.5159C66.1545 27.465 67.0817 28.1643 68.1607 28.486C68.3991 28.5571 68.5625 28.7763 68.5625 29.0251L68.5625 29.25C68.5625 29.5607 68.3107 29.8125 68 29.8125L64.25 29.8125C63.9394 29.8125 63.6875 29.5607 63.6875 29.25C63.6875 28.9394 63.9394 28.6875 64.25 28.6875L66.0715 28.6875C65.4926 28.2647 64.9923 27.735 64.6005 27.1211C63.8493 25.9442 63.5468 24.5363 63.7484 23.1547C63.95 21.7732 64.6421 20.5104 65.6982 19.5972C66.7543 18.6839 68.1038 18.1814 69.5 18.1814C70.8962 18.1814 72.2457 18.6839 73.3018 19.5972C74.3579 20.5104 75.0501 21.7732 75.2516 23.1547C75.4532 24.5363 75.1507 25.9442 74.3996 27.1211C74.0077 27.735 73.5074 28.2647 72.9285 28.6875L74.75 28.6875C75.0607 28.6875 75.3125 28.9394 75.3125 29.25C75.3125 29.5607 75.0607 29.8125 74.75 29.8125L71 29.8125C70.6894 29.8125 70.4375 29.5607 70.4375 29.25L70.4375 29.0251C70.4375 28.7763 70.6009 28.5571 70.8393 28.486C71.9183 28.1643 72.8455 27.465 73.4513 26.5159C74.057 25.5668 74.301 24.4313 74.1384 23.3172C73.9759 22.203 73.4177 21.1846 72.566 20.4481C71.7143 19.7117 70.626 19.3064 69.5 19.3064Z" fill="black"/>
</g>
<g filter="url(#filter2_di_1321_1296)">
<rect x="8" y="50" width="37" height="37" rx="18.5" fill="#B0BDFF" shape-rendering="crispEdges"/>
<path fill-rule="evenodd" clip-rule="evenodd" d="M21.6023 64.3523C21.8219 64.1326 22.1781 64.1326 22.3977 64.3523L24.25 66.2045L26.1023 64.3523C26.3219 64.1326 26.6781 64.1326 26.8977 64.3523L28.75 66.2045L30.6023 64.3523C30.8219 64.1326 31.1781 64.1326 31.3977 64.3523L33.6477 66.6023C33.8674 66.8219 33.8674 67.1781 33.6477 67.3977C33.4281 67.6174 33.0719 67.6174 32.8523 67.3977L31 65.5455L29.1477 67.3977C28.9281 67.6174 28.5719 67.6174 28.3523 67.3977L26.5 65.5455L24.6477 67.3977C24.4281 67.6174 24.0719 67.6174 23.8523 67.3977L22 65.5455L20.1477 67.3977C19.9281 67.6174 19.5719 67.6174 19.3523 67.3977C19.1326 67.1781 19.1326 66.8219 19.3523 66.6023L21.6023 64.3523Z" fill="black"/>
<path fill-rule="evenodd" clip-rule="evenodd" d="M21.6027 69.602C21.8224 69.3823 22.1786 69.3823 22.3982 69.602L24.2505 71.4543L26.1027 69.602C26.3224 69.3823 26.6786 69.3823 26.8982 69.602L28.7505 71.4543L30.6027 69.602C30.8224 69.3823 31.1786 69.3823 31.3982 69.602L33.6482 71.852C33.8679 72.0717 33.8679 72.4278 33.6482 72.6475C33.4286 72.8672 33.0724 72.8672 32.8527 72.6475L31.0005 70.7953L29.1482 72.6475C28.9286 72.8672 28.5724 72.8672 28.3527 72.6475L26.5005 70.7953L24.6482 72.6475C24.4286 72.8672 24.0724 72.8672 23.8527 72.6475L22.0005 70.7953L20.1482 72.6475C19.9286 72.8672 19.5724 72.8672 19.3527 72.6475C19.1331 72.4278 19.1331 72.0717 19.3527 71.852L21.6027 69.602Z" fill="black"/>
</g>
<g filter="url(#filter3_di_1321_1296)">
<rect x="51" y="50" width="37" height="37" rx="18.5" fill="#B0BDFF" shape-rendering="crispEdges"/>
<path fill-rule="evenodd" clip-rule="evenodd" d="M62.1875 62.5C62.1875 62.1893 62.4393 61.9375 62.75 61.9375C63.297 61.9375 63.8216 62.1548 64.2084 62.5416C64.5952 62.9284 64.8125 63.453 64.8125 64V70.75C64.8125 71.0607 64.5607 71.3125 64.25 71.3125C63.9393 71.3125 63.6875 71.0607 63.6875 70.75V64C63.6875 63.7514 63.5887 63.5129 63.4129 63.3371C63.2371 63.1613 62.9986 63.0625 62.75 63.0625C62.4393 63.0625 62.1875 62.8107 62.1875 62.5Z" fill="black"/>
<path fill-rule="evenodd" clip-rule="evenodd" d="M65.7495 63.0625C65.5009 63.0625 65.2624 63.1613 65.0866 63.3371C64.9108 63.5129 64.812 63.7514 64.812 64C64.812 64.3107 64.5602 64.5625 64.2495 64.5625C63.9389 64.5625 63.687 64.3107 63.687 64C63.687 63.453 63.9043 62.9284 64.2911 62.5416C64.6779 62.1548 65.2025 61.9375 65.7495 61.9375C66.2965 61.9375 66.8211 62.1548 67.2079 62.5416C67.5947 62.9284 67.812 63.453 67.812 64V70.75C67.812 71.0607 67.5602 71.3125 67.2495 71.3125C66.9389 71.3125 66.687 71.0607 66.687 70.75V64C66.687 63.7514 66.5882 63.5129 66.4124 63.3371C66.2366 63.1613 65.9982 63.0625 65.7495 63.0625Z" fill="black"/>
<path fill-rule="evenodd" clip-rule="evenodd" d="M68.75 63.0625C68.5014 63.0625 68.2629 63.1613 68.0871 63.3371C67.9113 63.5129 67.8125 63.7514 67.8125 64C67.8125 64.3107 67.5607 64.5625 67.25 64.5625C66.9393 64.5625 66.6875 64.3107 66.6875 64C66.6875 63.453 66.9048 62.9284 67.2916 62.5416C67.6784 62.1548 68.203 61.9375 68.75 61.9375C69.297 61.9375 69.8216 62.1548 70.2084 62.5416C70.5952 62.9284 70.8125 63.453 70.8125 64V71.5C70.8125 72.2726 71.2417 73.0704 72.1146 73.6939C72.9899 74.3191 74.2065 74.6875 75.5 74.6875C75.8107 74.6875 76.0625 74.9393 76.0625 75.25C76.0625 75.5607 75.8107 75.8125 75.5 75.8125C74.0087 75.8125 72.5546 75.3907 71.4607 74.6094C70.3645 73.8263 69.6875 72.7165 69.6875 71.5V64C69.6875 63.7514 69.5887 63.5129 69.4129 63.3371C69.2371 63.1613 68.9986 63.0625 68.75 63.0625Z" fill="black"/>
<path fill-rule="evenodd" clip-rule="evenodd" d="M70.5113 68.0113C71.0387 67.4838 71.7541 67.1875 72.5 67.1875C73.2459 67.1875 73.9613 67.4838 74.4887 68.0113C75.0162 68.5387 75.3125 69.2541 75.3125 70V71.5C75.3125 72.7165 74.6355 73.8263 73.5393 74.6094C72.4454 75.3907 70.9913 75.8125 69.5 75.8125C69.1893 75.8125 68.9375 75.5607 68.9375 75.25C68.9375 74.9393 69.1893 74.6875 69.5 74.6875C70.7935 74.6875 72.0101 74.3191 72.8854 73.6939C73.7583 73.0704 74.1875 72.2726 74.1875 71.5V70C74.1875 69.5524 74.0097 69.1232 73.6932 68.8068C73.3768 68.4903 72.9476 68.3125 72.5 68.3125C72.0524 68.3125 71.6232 68.4903 71.3068 68.8068C70.9903 69.1232 70.8125 69.5524 70.8125 70C70.8125 70.3107 70.5607 70.5625 70.25 70.5625C69.9393 70.5625 69.6875 70.3107 69.6875 70C69.6875 69.2541 69.9838 68.5387 70.5113 68.0113Z" fill="black"/>
</g>
<defs>
<filter id="filter0_di_1321_1296" x="0" y="0" width="53" height="53" filterUnits="userSpaceOnUse" color-interpolation-filters="sRGB">
<feFlood flood-opacity="0" result="BackgroundImageFix"/>
<feColorMatrix in="SourceAlpha" type="matrix" values="0 0 0 0 0 0 0 0 0 0 0 0 0 0 0 0 0 0 127 0" result="hardAlpha"/>
<feOffset dy="1"/>
<feGaussianBlur stdDeviation="4"/>
<feComposite in2="hardAlpha" operator="out"/>
<feColorMatrix type="matrix" values="0 0 0 0 0.698039 0 0 0 0 0.686275 0 0 0 0 0.996078 0 0 0 0.6 0"/>
<feBlend mode="normal" in2="BackgroundImageFix" result="effect1_dropShadow_1321_1296"/>
<feBlend mode="normal" in="SourceGraphic" in2="effect1_dropShadow_1321_1296" result="shape"/>
<feColorMatrix in="SourceAlpha" type="matrix" values="0 0 0 0 0 0 0 0 0 0 0 0 0 0 0 0 0 0 127 0" result="hardAlpha"/>
<feOffset dy="2"/>
<feGaussianBlur stdDeviation="2"/>
<feComposite in2="hardAlpha" operator="arithmetic" k2="-1" k3="1"/>
<feColorMatrix type="matrix" values="0 0 0 0 0.955484 0 0 0 0 0.953727 0 0 0 0 1 0 0 0 1 0"/>
<feBlend mode="normal" in2="shape" result="effect2_innerShadow_1321_1296"/>
</filter>
<filter id="filter1_di_1321_1296" x="43" y="0" width="53" height="53" filterUnits="userSpaceOnUse" color-interpolation-filters="sRGB">
<feFlood flood-opacity="0" result="BackgroundImageFix"/>
<feColorMatrix in="SourceAlpha" type="matrix" values="0 0 0 0 0 0 0 0 0 0 0 0 0 0 0 0 0 0 127 0" result="hardAlpha"/>
<feOffset dy="1"/>
<feGaussianBlur stdDeviation="4"/>
<feComposite in2="hardAlpha" operator="out"/>
<feColorMatrix type="matrix" values="0 0 0 0 0.698039 0 0 0 0 0.686275 0 0 0 0 0.996078 0 0 0 0.6 0"/>
<feBlend mode="normal" in2="BackgroundImageFix" result="effect1_dropShadow_1321_1296"/>
<feBlend mode="normal" in="SourceGraphic" in2="effect1_dropShadow_1321_1296" result="shape"/>
<feColorMatrix in="SourceAlpha" type="matrix" values="0 0 0 0 0 0 0 0 0 0 0 0 0 0 0 0 0 0 127 0" result="hardAlpha"/>
<feOffset dy="2"/>
<feGaussianBlur stdDeviation="2"/>
<feComposite in2="hardAlpha" operator="arithmetic" k2="-1" k3="1"/>
<feColorMatrix type="matrix" values="0 0 0 0 0.955484 0 0 0 0 0.953727 0 0 0 0 1 0 0 0 1 0"/>
<feBlend mode="normal" in2="shape" result="effect2_innerShadow_1321_1296"/>
</filter>
<filter id="filter2_di_1321_1296" x="0" y="43" width="53" height="53" filterUnits="userSpaceOnUse" color-interpolation-filters="sRGB">
<feFlood flood-opacity="0" result="BackgroundImageFix"/>
<feColorMatrix in="SourceAlpha" type="matrix" values="0 0 0 0 0 0 0 0 0 0 0 0 0 0 0 0 0 0 127 0" result="hardAlpha"/>
<feOffset dy="1"/>
<feGaussianBlur stdDeviation="4"/>
<feComposite in2="hardAlpha" operator="out"/>
<feColorMatrix type="matrix" values="0 0 0 0 0.698039 0 0 0 0 0.686275 0 0 0 0 0.996078 0 0 0 0.6 0"/>
<feBlend mode="normal" in2="BackgroundImageFix" result="effect1_dropShadow_1321_1296"/>
<feBlend mode="normal" in="SourceGraphic" in2="effect1_dropShadow_1321_1296" result="shape"/>
<feColorMatrix in="SourceAlpha" type="matrix" values="0 0 0 0 0 0 0 0 0 0 0 0 0 0 0 0 0 0 127 0" result="hardAlpha"/>
<feOffset dy="2"/>
<feGaussianBlur stdDeviation="2"/>
<feComposite in2="hardAlpha" operator="arithmetic" k2="-1" k3="1"/>
<feColorMatrix type="matrix" values="0 0 0 0 0.955484 0 0 0 0 0.953727 0 0 0 0 1 0 0 0 1 0"/>
<feBlend mode="normal" in2="shape" result="effect2_innerShadow_1321_1296"/>
</filter>
<filter id="filter3_di_1321_1296" x="43" y="43" width="53" height="53" filterUnits="userSpaceOnUse" color-interpolation-filters="sRGB">
<feFlood flood-opacity="0" result="BackgroundImageFix"/>
<feColorMatrix in="SourceAlpha" type="matrix" values="0 0 0 0 0 0 0 0 0 0 0 0 0 0 0 0 0 0 127 0" result="hardAlpha"/>
<feOffset dy="1"/>
<feGaussianBlur stdDeviation="4"/>
<feComposite in2="hardAlpha" operator="out"/>
<feColorMatrix type="matrix" values="0 0 0 0 0.698039 0 0 0 0 0.686275 0 0 0 0 0.996078 0 0 0 0.6 0"/>
<feBlend mode="normal" in2="BackgroundImageFix" result="effect1_dropShadow_1321_1296"/>
<feBlend mode="normal" in="SourceGraphic" in2="effect1_dropShadow_1321_1296" result="shape"/>
<feColorMatrix in="SourceAlpha" type="matrix" values="0 0 0 0 0 0 0 0 0 0 0 0 0 0 0 0 0 0 127 0" result="hardAlpha"/>
<feOffset dy="2"/>
<feGaussianBlur stdDeviation="2"/>
<feComposite in2="hardAlpha" operator="arithmetic" k2="-1" k3="1"/>
<feColorMatrix type="matrix" values="0 0 0 0 0.955484 0 0 0 0 0.953727 0 0 0 0 1 0 0 0 1 0"/>
<feBlend mode="normal" in2="shape" result="effect2_innerShadow_1321_1296"/>
</filter>
</defs>
</svg>
