<svg width="43" height="44" viewBox="0 0 43 44" fill="none" xmlns="http://www.w3.org/2000/svg">
<g filter="url(#filter0_di_1323_1993)">
<path d="M33 18.3333H23V8.33329C23 7.89127 22.8244 7.46734 22.5118 7.15478C22.1993 6.84222 21.7754 6.66663 21.3333 6.66663C20.8913 6.66663 20.4674 6.84222 20.1548 7.15478C19.8423 7.46734 19.6667 7.89127 19.6667 8.33329V18.3333H9.66667C9.22464 18.3333 8.80072 18.5089 8.48816 18.8214C8.1756 19.134 8 19.5579 8 20C8 20.442 8.1756 20.8659 8.48816 21.1785C8.80072 21.491 9.22464 21.6666 9.66667 21.6666H19.6667V31.6666C19.6667 32.1087 19.8423 32.5326 20.1548 32.8451C20.4674 33.1577 20.8913 33.3333 21.3333 33.3333C21.7754 33.3333 22.1993 33.1577 22.5118 32.8451C22.8244 32.5326 23 32.1087 23 31.6666V21.6666H33C33.442 21.6666 33.866 21.491 34.1785 21.1785C34.4911 20.8659 34.6667 20.442 34.6667 20C34.6667 19.5579 34.4911 19.134 34.1785 18.8214C33.866 18.5089 33.442 18.3333 33 18.3333Z" fill="#FC0160"/>
</g>
<defs>
<filter id="filter0_di_1323_1993" x="0" y="0.666626" width="42.667" height="42.6666" filterUnits="userSpaceOnUse" color-interpolation-filters="sRGB">
<feFlood flood-opacity="0" result="BackgroundImageFix"/>
<feColorMatrix in="SourceAlpha" type="matrix" values="0 0 0 0 0 0 0 0 0 0 0 0 0 0 0 0 0 0 127 0" result="hardAlpha"/>
<feOffset dy="2"/>
<feGaussianBlur stdDeviation="4"/>
<feComposite in2="hardAlpha" operator="out"/>
<feColorMatrix type="matrix" values="0 0 0 0 0.698039 0 0 0 0 0.686275 0 0 0 0 0.996078 0 0 0 0.48 0"/>
<feBlend mode="normal" in2="BackgroundImageFix" result="effect1_dropShadow_1323_1993"/>
<feBlend mode="normal" in="SourceGraphic" in2="effect1_dropShadow_1323_1993" result="shape"/>
<feColorMatrix in="SourceAlpha" type="matrix" values="0 0 0 0 0 0 0 0 0 0 0 0 0 0 0 0 0 0 127 0" result="hardAlpha"/>
<feOffset dy="2"/>
<feGaussianBlur stdDeviation="1.5"/>
<feComposite in2="hardAlpha" operator="arithmetic" k2="-1" k3="1"/>
<feColorMatrix type="matrix" values="0 0 0 0 0.955704 0 0 0 0 0.953955 0 0 0 0 1 0 0 0 1 0"/>
<feBlend mode="normal" in2="shape" result="effect2_innerShadow_1323_1993"/>
</filter>
</defs>
</svg>
